<?xml version="1.0" encoding="UTF-8"?>
<svg width="200px" height="200px" viewBox="0 0 200 200" version="1.1" xmlns="http://www.w3.org/2000/svg">
    <title>Chip</title>
    <g id="Chip" stroke="none" stroke-width="1" fill="none" fill-rule="evenodd">
        <rect id="Background" fill="#6c5ce7" x="0" y="0" width="200" height="200" rx="15"></rect>
        <rect id="Chip-Body" stroke="#FFFFFF" stroke-width="6" fill="#4834d4" x="40" y="40" width="120" height="120" rx="10"></rect>
        <rect id="Center" fill="#FFFFFF" x="85" y="85" width="30" height="30" rx="4"></rect>
        <!-- Connection lines -->
        <line x1="40" y1="70" x2="10" y2="70" stroke="#FFFFFF" stroke-width="6" />
        <line x1="40" y1="100" x2="10" y2="100" stroke="#FFFFFF" stroke-width="6" />
        <line x1="40" y1="130" x2="10" y2="130" stroke="#FFFFFF" stroke-width="6" />
        
        <line x1="160" y1="70" x2="190" y2="70" stroke="#FFFFFF" stroke-width="6" />
        <line x1="160" y1="100" x2="190" y2="100" stroke="#FFFFFF" stroke-width="6" />
        <line x1="160" y1="130" x2="190" y2="130" stroke="#FFFFFF" stroke-width="6" />
        
        <line x1="70" y1="40" x2="70" y2="10" stroke="#FFFFFF" stroke-width="6" />
        <line x1="100" y1="40" x2="100" y2="10" stroke="#FFFFFF" stroke-width="6" />
        <line x1="130" y1="40" x2="130" y2="10" stroke="#FFFFFF" stroke-width="6" />
        
        <line x1="70" y1="160" x2="70" y2="190" stroke="#FFFFFF" stroke-width="6" />
        <line x1="100" y1="160" x2="100" y2="190" stroke="#FFFFFF" stroke-width="6" />
        <line x1="130" y1="160" x2="130" y2="190" stroke="#FFFFFF" stroke-width="6" />
    </g>
</svg>
