<?xml version="1.0" encoding="UTF-8"?>
<svg width="24px" height="24px" viewBox="0 0 24 24" version="1.1" xmlns="http://www.w3.org/2000/svg">
    <g stroke="none" stroke-width="1" fill="none" fill-rule="evenodd">
        <path d="M12,2 C17.5228,2 22,6.47715 22,12 C22,17.5228 17.5228,22 12,22 C6.47715,22 2,17.5228 2,12 C2,6.47715 6.47715,2 12,2 Z M12,4 C7.58172,4 4,7.58172 4,12 C4,16.4183 7.58172,20 12,20 C16.4183,20 20,16.4183 20,12 C20,7.58172 16.4183,4 12,4 Z M16.7071,7.29289 C17.0976,7.68342 17.0976,8.31658 16.7071,8.70711 L13.4142,12 L16.7071,15.2929 C17.0976,15.6834 17.0976,16.3166 16.7071,16.7071 C16.3166,17.0976 15.6834,17.0976 15.2929,16.7071 L12,13.4142 L8.70711,16.7071 C8.31658,17.0976 7.68342,17.0976 7.29289,16.7071 C6.90237,16.3166 6.90237,15.6834 7.29289,15.2929 L10.5858,12 L7.29289,8.70711 C6.90237,8.31658 6.90237,7.68342 7.29289,7.29289 C7.68342,6.90237 8.31658,6.90237 8.70711,7.29289 L12,10.5858 L15.2929,7.29289 C15.6834,6.90237 16.3166,6.90237 16.7071,7.29289 Z" fill="#FFFFFF" fill-rule="nonzero"></path>
    </g>
</svg>
